<svg
  xmlns="http://www.w3.org/2000/svg"
  width="24"
  height="24"
  viewBox="0 0 24 24"
  fill="currentColor"
  fill-rule="evenodd"
>
  <path d="m10.429 3.341.85 1.257c.201.252.468.382.788.402l5.904.001-.045.002a1.04 1.04 0 0 0-.606.264c-.208.192-.31.453-.32.733v5.586l-1.293-1.293a1.03 1.03 0 0 0-.669-.292 1.03 1.03 0 0 0-.745.292L13 11.586V6a1.1 1.1 0 0 0-.098-.433A1.01 1.01 0 0 0 12.001 5a1.01 1.01 0 0 0-.867.5A1.06 1.06 0 0 0 11 6v8c.016.294.12.561.347.758.288.248.704.31 1.053.159.116-.051.215-.124.307-.21L15 12.414l2.293 2.293c.22.196.481.312.781.29.353-.026.673-.244.827-.563.066-.138.094-.282.099-.434V6a1.1 1.1 0 0 0-.098-.433 1.01 1.01 0 0 0-.873-.566h-.058l.03-.001.028.001h2.066c.217.013.429.037.64.09a3.006 3.006 0 0 1 2.181 2.203c.051.211.073.422.083.638v10.163a3.5 3.5 0 0 1-.09.64 3.006 3.006 0 0 1-2.203 2.181 3.4 3.4 0 0 1-.638.083H3.905a3.5 3.5 0 0 1-.64-.09 3.006 3.006 0 0 1-2.181-2.203 3.4 3.4 0 0 1-.083-.638V4.905a3.5 3.5 0 0 1 .09-.64 3.006 3.006 0 0 1 2.203-2.181c.211-.051.422-.073.638-.083L7.941 2c.391.01.772.077 1.134.227a3.1 3.1 0 0 1 1.354 1.114" />
</svg>
