<svg
  xmlns="http://www.w3.org/2000/svg"
  width="24"
  height="24"
  viewBox="0 0 24 24"
  fill="currentColor"
  fill-rule="evenodd"
>
  <path d="m20 8.25-.001.808a2.07 2.07 0 0 1-.427 1.179c-.26.33-.618.566-1.019.685-.137.041-.277.06-.418.073l-.081.004.67 2.011a4.1 4.1 0 0 1 1.775.282 4.02 4.02 0 0 1 2.344 2.598 4.04 4.04 0 0 1-.188 2.735 4.03 4.03 0 0 1-2.328 2.148 4.03 4.03 0 0 1-3.24-.26 4.03 4.03 0 0 1-1.845-2.143 4.04 4.04 0 0 1 .314-3.404c.303-.521.727-.943 1.217-1.289l.054-.034-.753-2.259a5.3 5.3 0 0 0-.948.524 5.07 5.07 0 0 0-1.758 2.206 5 5 0 0 0-.338 1.336c-.039.353-.001.716-.096 1.061a2.03 2.03 0 0 1-1.174 1.339A2.2 2.2 0 0 1 11 18H8.872a4.1 4.1 0 0 1-1.176 1.955 4.01 4.01 0 0 1-2.995 1.034 4.05 4.05 0 0 1-2.747-1.396 4.004 4.004 0 0 1 0-5.186 4.05 4.05 0 0 1 2.703-1.392 4.03 4.03 0 0 1 2.936.939A4.05 4.05 0 0 1 8.872 16H11c.005-.299.019-.596.056-.892a7 7 0 0 1 .507-1.864 7 7 0 0 1 1.242-1.936c.281-.311.59-.589.917-.85l.077-.058-.052-.064a1.05 1.05 0 0 0-.714-.335L10.971 10c-.125.009-.24.029-.356.077a1 1 0 0 0-.585.679c-.029.11-.026.22-.034.332a1 1 0 0 1-.07.29 1.01 1.01 0 0 1-.791.613 1.1 1.1 0 0 1-.451-.042l-6-2a1.1 1.1 0 0 1-.381-.232 1.01 1.01 0 0 1-.251-1.034c.12-.361.445-.627.823-.675a1.1 1.1 0 0 1 .441.043L8.291 9.71a3.06 3.06 0 0 1 1.343-1.381c.422-.217.88-.316 1.353-.329l2.08.001c.141.007.276.015.416.038.353.058.694.179 1.005.356.446.254.794.616 1.072 1.042a8 8 0 0 1 1.025-.294A7.3 7.3 0 0 1 18 9v-.665a4.1 4.1 0 0 0-.839-1.819 3.8 3.8 0 0 0-.551-.554c-.127-.103-.26-.186-.367-.308a1.01 1.01 0 0 1-.226-.839c.056-.297.248-.557.515-.699a1.01 1.01 0 0 1 .935 0c.173.091.326.227.474.352a6 6 0 0 1 1.865 2.84c.093.303.18.624.194.942" />
</svg>
