<svg
  xmlns="http://www.w3.org/2000/svg"
  width="24"
  height="24"
  viewBox="0 0 24 24"
  fill="currentColor"
  fill-rule="evenodd"
>
  <path d="m17.424 1.869 4.743 4.745c.196.217.368.445.503.706.217.421.321.884.33 1.355l-.001 6.701c-.016.33-.066.648-.179.959a3.2 3.2 0 0 1-.689 1.089l-4.745 4.743a3.3 3.3 0 0 1-.706.503 3.1 3.1 0 0 1-1.355.33l-6.701-.001a3.2 3.2 0 0 1-.959-.179 3.2 3.2 0 0 1-1.089-.689l-4.743-4.745a3.3 3.3 0 0 1-.503-.706A3.1 3.1 0 0 1 1 15.325l.001-6.701c.016-.33.066-.648.179-.959.151-.414.39-.77.689-1.089l4.745-4.743c.217-.196.445-.368.706-.503.408-.21.848-.307 1.304-.329h6.752c.33.016.648.066.959.179.414.151.77.39 1.089.689M8 11a1.1 1.1 0 0 0-.433.098 1.01 1.01 0 0 0-.567.901c-.001.354.193.69.5.867.155.089.323.128.5.134h8c.151-.006.295-.032.433-.098a1.01 1.01 0 0 0 .567-.901 1.01 1.01 0 0 0-.5-.867A1.06 1.06 0 0 0 16 11z" />
</svg>
