<svg
  xmlns="http://www.w3.org/2000/svg"
  width="24"
  height="24"
  viewBox="0 0 24 24"
  fill="currentColor"
  fill-rule="evenodd"
>
  <path d="M13.385 1.001c.248.012.491.038.732.1a2.879 2.879 0 0 1 1.961 1.656c.083.189.14.383.189.583l.36 1.727.088.02c.891.231 1.62.83 2.012 1.663.185.393.261.818.273 1.25v8.031a2.999 2.999 0 0 1-.792 1.999c-.382.425-.886.708-1.431.867l-.045.012-.372 1.779a3.4 3.4 0 0 1-.196.571 3 3 0 0 1-1.158 1.3 3.1 3.1 0 0 1-1.564.441l-2.827-.001a3.6 3.6 0 0 1-.732-.1 2.879 2.879 0 0 1-1.961-1.656 3.5 3.5 0 0 1-.189-.583l-.36-1.727-.088-.02a3.05 3.05 0 0 1-2.012-1.663A3.1 3.1 0 0 1 5 16V7.969a3.07 3.07 0 0 1 .387-1.443 3.06 3.06 0 0 1 1.898-1.439l.056-.013.273-1.638c.05-.24.119-.472.222-.695a3 3 0 0 1 1.158-1.3A3.1 3.1 0 0 1 10.529 1zm-2.28 8.552-1 2a1.04 1.04 0 0 0-.061.741c.131.426.52.69.956.706h.382l-.277.553a1.06 1.06 0 0 0-.103.506c.02.353.234.677.55.835.34.17.759.13 1.06-.103.121-.093.209-.211.283-.344l1-2c.105-.237.138-.489.061-.741-.131-.426-.52-.69-.956-.706h-.382l.277-.553c.073-.161.113-.327.103-.506a1.01 1.01 0 0 0-.55-.835 1.01 1.01 0 0 0-1.06.103 1.1 1.1 0 0 0-.283.344" />
</svg>
